<svg width="16" height="16" viewBox="0 0 16 16" fill="none" xmlns="http://www.w3.org/2000/svg">
<path d="M8.66683 13.292C10.0117 13.1209 11.2409 12.4441 12.1047 11.3992C12.9685 10.3543 13.402 9.01973 13.3171 7.66669C13.2322 6.31365 12.6353 5.0437 11.6477 4.11496C10.6601 3.18622 9.35586 2.66839 8.00016 2.66671C6.6428 2.6657 5.33613 3.18227 4.34639 4.11116C3.35665 5.04005 2.75832 6.31137 2.67332 7.66607C2.58833 9.02076 3.02305 10.3569 3.88893 11.4022C4.7548 12.4475 5.98665 13.1234 7.3335 13.292V9.33337H6.00016V8.00004H7.3335V6.89737C7.3335 6.00604 7.42683 5.68271 7.60016 5.35671C7.77091 5.03416 8.0348 4.7705 8.3575 4.60004C8.61216 4.46337 8.92883 4.38137 9.48216 4.34604C9.7015 4.33204 9.9855 4.34937 10.3342 4.39937V5.66604H10.0002C9.38883 5.66604 9.13616 5.69471 8.9855 5.77537C8.89559 5.82161 8.8224 5.89481 8.77616 5.98471C8.69616 6.13537 8.66683 6.28471 8.66683 6.89671V8.00004H10.3335L10.0002 9.33337H8.66683V13.292ZM8.00016 14.6667C4.31816 14.6667 1.3335 11.682 1.3335 8.00004C1.3335 4.31804 4.31816 1.33337 8.00016 1.33337C11.6822 1.33337 14.6668 4.31804 14.6668 8.00004C14.6668 11.682 11.6822 14.6667 8.00016 14.6667Z" fill="#014764"/>
</svg>
