<svg width="21" height="21" viewBox="0 0 21 21" fill="none" xmlns="http://www.w3.org/2000/svg">
<path fill-rule="evenodd" clip-rule="evenodd" d="M14.8241 11.3332H18.178V9.6665H14.8241C14.615 5.4554 12.8385 2.1665 10.678 2.1665C8.51742 2.1665 6.74094 5.4554 6.53188 9.6665H3.17798V11.3332H6.53188C6.74094 15.5443 8.51742 18.8332 10.678 18.8332C12.8385 18.8332 14.615 15.5443 14.8241 11.3332ZM13.1552 11.3332C13.0589 13.0782 12.6661 14.582 12.1335 15.647C11.4681 16.9779 10.8572 17.1665 10.678 17.1665C10.4988 17.1665 9.88784 16.9779 9.22241 15.647C8.68988 14.582 8.2971 13.0782 8.2008 11.3332H13.1552ZM8.2008 9.6665C8.2971 7.92152 8.68988 6.41769 9.22241 5.35264C9.88784 4.02177 10.4988 3.83317 10.678 3.83317C10.8572 3.83317 11.4681 4.02177 12.1335 5.35264C12.6661 6.41769 13.0589 7.92152 13.1552 9.6665H8.2008Z" fill="#CAD1D4"/>
<path fill-rule="evenodd" clip-rule="evenodd" d="M10.6781 17.1665C14.36 17.1665 17.3447 14.1817 17.3447 10.4998C17.3447 6.81794 14.36 3.83317 10.6781 3.83317C6.99616 3.83317 4.01139 6.81794 4.01139 10.4998C4.01139 14.1817 6.99616 17.1665 10.6781 17.1665ZM10.6781 18.8332C15.2804 18.8332 19.0114 15.1022 19.0114 10.4998C19.0114 5.89746 15.2804 2.1665 10.6781 2.1665C6.07569 2.1665 2.34473 5.89746 2.34473 10.4998C2.34473 15.1022 6.07569 18.8332 10.6781 18.8332Z" fill="#CAD1D4"/>
</svg>
