<svg width="16" height="16" viewBox="0 0 16 16" fill="none" xmlns="http://www.w3.org/2000/svg">
<path d="M8.00016 6.00004C7.46973 6.00004 6.96102 6.21075 6.58595 6.58583C6.21088 6.9609 6.00016 7.46961 6.00016 8.00004C6.00016 8.53047 6.21088 9.03918 6.58595 9.41426C6.96102 9.78933 7.46973 10 8.00016 10C8.5306 10 9.0393 9.78933 9.41438 9.41426C9.78945 9.03918 10.0002 8.53047 10.0002 8.00004C10.0002 7.46961 9.78945 6.9609 9.41438 6.58583C9.0393 6.21075 8.5306 6.00004 8.00016 6.00004ZM8.00016 4.66671C8.88422 4.66671 9.73206 5.0179 10.3572 5.64302C10.9823 6.26814 11.3335 7.11599 11.3335 8.00004C11.3335 8.8841 10.9823 9.73194 10.3572 10.3571C9.73206 10.9822 8.88422 11.3334 8.00016 11.3334C7.11611 11.3334 6.26826 10.9822 5.64314 10.3571C5.01802 9.73194 4.66683 8.8841 4.66683 8.00004C4.66683 7.11599 5.01802 6.26814 5.64314 5.64302C6.26826 5.0179 7.11611 4.66671 8.00016 4.66671ZM12.3335 4.50004C12.3335 4.72105 12.2457 4.93302 12.0894 5.0893C11.9331 5.24558 11.7212 5.33337 11.5002 5.33337C11.2791 5.33337 11.0672 5.24558 10.9109 5.0893C10.7546 4.93302 10.6668 4.72105 10.6668 4.50004C10.6668 4.27903 10.7546 4.06707 10.9109 3.91079C11.0672 3.7545 11.2791 3.66671 11.5002 3.66671C11.7212 3.66671 11.9331 3.7545 12.0894 3.91079C12.2457 4.06707 12.3335 4.27903 12.3335 4.50004ZM8.00016 2.66671C6.35083 2.66671 6.0815 2.67137 5.31416 2.70537C4.7915 2.73004 4.44083 2.80004 4.1155 2.92671C3.82616 3.03871 3.6175 3.17271 3.3955 3.39537C3.18683 3.59697 3.0264 3.8431 2.92616 4.11537C2.7995 4.44204 2.7295 4.79204 2.7055 5.31404C2.67083 6.05004 2.66683 6.30737 2.66683 8.00004C2.66683 9.64937 2.6715 9.91871 2.7055 10.686C2.73016 11.208 2.80016 11.5594 2.92616 11.884C3.0395 12.174 3.17283 12.3827 3.39416 12.604C3.61883 12.828 3.8275 12.962 4.11416 13.0727C4.4435 13.2 4.79416 13.2707 5.31416 13.2947C6.05016 13.3294 6.3075 13.3334 8.00016 13.3334C9.6495 13.3334 9.91883 13.3287 10.6862 13.2947C11.2075 13.27 11.5588 13.2 11.8842 13.074C12.1728 12.9614 12.3828 12.8274 12.6042 12.606C12.8288 12.3814 12.9628 12.1727 13.0735 11.886C13.2002 11.5574 13.2708 11.206 13.2948 10.686C13.3295 9.95004 13.3335 9.69271 13.3335 8.00004C13.3335 6.35071 13.3288 6.08137 13.2948 5.31404C13.2702 4.79271 13.2002 4.44071 13.0735 4.11537C12.973 3.84338 12.8129 3.59735 12.6048 3.39537C12.4033 3.1866 12.1572 3.02615 11.8848 2.92604C11.5582 2.79937 11.2075 2.72937 10.6862 2.70537C9.95016 2.67071 9.69283 2.66671 8.00016 2.66671ZM8.00016 1.33337C9.8115 1.33337 10.0375 1.34004 10.7482 1.37337C11.4582 1.40671 11.9415 1.51804 12.3668 1.68337C12.8068 1.85271 13.1775 2.08204 13.5482 2.45204C13.8872 2.7853 14.1495 3.18843 14.3168 3.63337C14.4815 4.05804 14.5935 4.54204 14.6268 5.25204C14.6582 5.96271 14.6668 6.18871 14.6668 8.00004C14.6668 9.81137 14.6602 10.0374 14.6268 10.748C14.5935 11.458 14.4815 11.9414 14.3168 12.3667C14.1499 12.8119 13.8876 13.2151 13.5482 13.548C13.2148 13.8869 12.8117 14.1492 12.3668 14.3167C11.9422 14.4814 11.4582 14.5934 10.7482 14.6267C10.0375 14.658 9.8115 14.6667 8.00016 14.6667C6.18883 14.6667 5.96283 14.66 5.25216 14.6267C4.54216 14.5934 4.05883 14.4814 3.6335 14.3167C3.18838 14.1497 2.78518 13.8873 2.45216 13.548C2.1131 13.2148 1.85078 12.8117 1.6835 12.3667C1.51816 11.942 1.40683 11.458 1.3735 10.748C1.34216 10.0374 1.3335 9.81137 1.3335 8.00004C1.3335 6.18871 1.34016 5.96271 1.3735 5.25204C1.40683 4.54137 1.51816 4.05871 1.6835 3.63337C1.85032 3.18816 2.1127 2.78492 2.45216 2.45204C2.78528 2.11286 3.18845 1.85053 3.6335 1.68337C4.05883 1.51804 4.5415 1.40671 5.25216 1.37337C5.96283 1.34204 6.18883 1.33337 8.00016 1.33337Z" fill="#014764"/>
</svg>
