<svg width="16" height="16" viewBox="0 0 16 16" fill="none" xmlns="http://www.w3.org/2000/svg">
<path d="M3.99984 7.33341C3.99984 6.96522 3.70136 6.66675 3.33317 6.66675C2.96498 6.66675 2.6665 6.96522 2.6665 7.33341C2.6665 10.0532 4.7023 12.2974 7.33317 12.6255V14.0001C7.33317 14.3683 7.63165 14.6667 7.99984 14.6667C8.36803 14.6667 8.6665 14.3683 8.6665 14.0001V12.6255C11.2974 12.2974 13.3332 10.0532 13.3332 7.33341C13.3332 6.96522 13.0347 6.66675 12.6665 6.66675C12.2983 6.66675 11.9998 6.96522 11.9998 7.33341C11.9998 9.54255 10.209 11.3334 7.99984 11.3334C5.7907 11.3334 3.99984 9.54255 3.99984 7.33341Z" fill="#FDFDFD"/>
<path fill-rule="evenodd" clip-rule="evenodd" d="M5.3335 3.99992C5.3335 2.52716 6.5274 1.33325 8.00016 1.33325C9.47292 1.33325 10.6668 2.52716 10.6668 3.99992V7.33325C10.6668 8.80601 9.47292 9.99992 8.00016 9.99992C6.5274 9.99992 5.3335 8.80601 5.3335 7.33325V3.99992ZM8.00016 2.66659C7.26378 2.66659 6.66683 3.26354 6.66683 3.99992V7.33325C6.66683 8.06963 7.26378 8.66659 8.00016 8.66659C8.73654 8.66659 9.3335 8.06963 9.3335 7.33325V3.99992C9.3335 3.26354 8.73654 2.66659 8.00016 2.66659Z" fill="#FDFDFD"/>
</svg>
