<svg width="20" height="18" viewBox="0 0 20 18" fill="none" xmlns="http://www.w3.org/2000/svg">
<path d="M12.4653 11.4631H11.6776L11.3984 11.1941C12.595 9.79883 13.2132 7.89534 12.8742 5.87226C12.4055 3.10173 10.0921 0.889295 7.29996 0.550453C3.0819 0.032225 -0.468049 3.58009 0.0504827 7.79568C0.389523 10.5861 2.60326 12.8982 5.37541 13.3666C7.39968 13.7055 9.30429 13.0876 10.7003 11.8917L10.9696 12.1707V12.958L15.2076 17.1935C15.6164 17.6021 16.2845 17.6021 16.6934 17.1935C17.1022 16.7849 17.1022 16.1172 16.6934 15.7086L12.4653 11.4631ZM6.48227 11.4631C3.9993 11.4631 1.99498 9.45999 1.99498 6.97847C1.99498 4.49696 3.9993 2.49381 6.48227 2.49381C8.96525 2.49381 10.9696 4.49696 10.9696 6.97847C10.9696 9.45999 8.96525 11.4631 6.48227 11.4631Z" fill="#014764"/>
</svg>
