<svg width="21" height="21" viewBox="0 0 21 21" fill="none" xmlns="http://www.w3.org/2000/svg">
<path fill-rule="evenodd" clip-rule="evenodd" d="M12.1721 11.9941C12.4975 11.6686 13.0251 11.6686 13.3506 11.9941L17.9339 16.5774C18.2593 16.9028 18.2593 17.4305 17.9339 17.7559C17.6085 18.0814 17.0808 18.0814 16.7554 17.7559L12.1721 13.1726C11.8466 12.8472 11.8466 12.3195 12.1721 11.9941Z" fill="#CAD1D4"/>
<path fill-rule="evenodd" clip-rule="evenodd" d="M9.01131 4.66667C6.71013 4.66667 4.84465 6.53215 4.84465 8.83333C4.84465 11.1345 6.71013 13 9.01131 13C11.3125 13 13.178 11.1345 13.178 8.83333C13.178 6.53215 11.3125 4.66667 9.01131 4.66667ZM3.17798 8.83333C3.17798 5.61167 5.78965 3 9.01131 3C12.233 3 14.8446 5.61167 14.8446 8.83333C14.8446 12.055 12.233 14.6667 9.01131 14.6667C5.78965 14.6667 3.17798 12.055 3.17798 8.83333Z" fill="#CAD1D4"/>
</svg>
