<svg width="16" height="16" viewBox="0 0 16 16" fill="none" xmlns="http://www.w3.org/2000/svg">
<path d="M8.74648 11.3487L5.94714 9.82205C5.58168 10.2128 5.10713 10.4845 4.58519 10.602C4.06325 10.7194 3.51804 10.6772 3.02043 10.4807C2.52281 10.2843 2.09579 9.94269 1.79486 9.50035C1.49393 9.05801 1.33301 8.53538 1.33301 8.00039C1.33301 7.46539 1.49393 6.94276 1.79486 6.50042C2.09579 6.05809 2.52281 5.71649 3.02043 5.52003C3.51804 5.32357 4.06325 5.28133 4.58519 5.3988C5.10713 5.51627 5.58168 5.78801 5.94714 6.17872L8.74715 4.65205C8.58818 4.02277 8.66418 3.35711 8.9609 2.77986C9.25762 2.2026 9.75468 1.75337 10.3589 1.51639C10.9632 1.2794 11.6331 1.27092 12.2431 1.49254C12.8532 1.71416 13.3615 2.15067 13.6727 2.72023C13.9839 3.28979 14.0767 3.95331 13.9337 4.58642C13.7908 5.21952 13.4218 5.77874 12.896 6.15926C12.3702 6.53978 11.7236 6.71546 11.0775 6.65338C10.4315 6.59131 9.83021 6.29573 9.38648 5.82205L6.58648 7.34872C6.69395 7.77629 6.69395 8.22381 6.58648 8.65139L9.38581 10.1781C9.82955 9.70438 10.4308 9.4088 11.0769 9.34672C11.723 9.28465 12.3695 9.46033 12.8953 9.84085C13.4211 10.2214 13.7901 10.7806 13.9331 11.4137C14.0761 12.0468 13.9832 12.7103 13.672 13.2799C13.3608 13.8494 12.8525 14.2859 12.2425 14.5076C11.6324 14.7292 10.9625 14.7207 10.3583 14.4837C9.75402 14.2467 9.25695 13.7975 8.96023 13.2203C8.66352 12.643 8.58751 11.9773 8.74648 11.3481V11.3487ZM3.99981 9.33339C4.35343 9.33339 4.69257 9.19291 4.94262 8.94286C5.19267 8.69281 5.33315 8.35368 5.33315 8.00005C5.33315 7.64643 5.19267 7.30729 4.94262 7.05724C4.69257 6.8072 4.35343 6.66672 3.99981 6.66672C3.64619 6.66672 3.30705 6.8072 3.057 7.05724C2.80695 7.30729 2.66648 7.64643 2.66648 8.00005C2.66648 8.35368 2.80695 8.69281 3.057 8.94286C3.30705 9.19291 3.64619 9.33339 3.99981 9.33339ZM11.3331 5.33339C11.6868 5.33339 12.0259 5.19291 12.276 4.94286C12.526 4.69281 12.6665 4.35368 12.6665 4.00005C12.6665 3.64643 12.526 3.30729 12.276 3.05725C12.0259 2.8072 11.6868 2.66672 11.3331 2.66672C10.9795 2.66672 10.6404 2.8072 10.3903 3.05725C10.1403 3.30729 9.99981 3.64643 9.99981 4.00005C9.99981 4.35368 10.1403 4.69281 10.3903 4.94286C10.6404 5.19291 10.9795 5.33339 11.3331 5.33339ZM11.3331 13.3334C11.6868 13.3334 12.0259 13.1929 12.276 12.9429C12.526 12.6928 12.6665 12.3537 12.6665 12.0001C12.6665 11.6464 12.526 11.3073 12.276 11.0572C12.0259 10.8072 11.6868 10.6667 11.3331 10.6667C10.9795 10.6667 10.6404 10.8072 10.3903 11.0572C10.1403 11.3073 9.99981 11.6464 9.99981 12.0001C9.99981 12.3537 10.1403 12.6928 10.3903 12.9429C10.6404 13.1929 10.9795 13.3334 11.3331 13.3334Z" fill="#014764"/>
</svg>
