<svg width="16" height="16" viewBox="0 0 16 16" fill="none" xmlns="http://www.w3.org/2000/svg">
<path fill-rule="evenodd" clip-rule="evenodd" d="M3.72639 2.80611C2.48558 2.8902 1.52802 3.8778 1.44732 5.11884C1.38707 6.04551 1.33325 7.11954 1.33325 7.99984C1.33325 8.88013 1.38707 9.95416 1.44732 10.8808C1.52802 12.1219 2.48558 13.1095 3.72639 13.1936C4.80947 13.267 6.26676 13.3332 7.99992 13.3332C9.73307 13.3332 11.1904 13.267 12.2734 13.1936C13.5143 13.1095 14.4718 12.1219 14.5525 10.8808C14.6128 9.95416 14.6666 8.88013 14.6666 7.99984C14.6666 7.11954 14.6128 6.04551 14.5525 5.11884C14.4718 3.87779 13.5143 2.8902 12.2734 2.80611C11.1904 2.73271 9.73307 2.6665 7.99992 2.6665C6.26676 2.6665 4.80947 2.73271 3.72639 2.80611ZM7.7013 6.1117C7.25813 5.81827 6.66659 6.13605 6.66659 6.66756V9.33228C6.66659 9.86378 7.2581 10.1816 7.70127 9.88816L9.69686 8.567C10.103 8.29811 10.103 7.70193 9.69689 7.43302L7.7013 6.1117Z" fill="#CADDE5"/>
</svg>
